# xmcd
#
# Track frame offsets:
#	150
#	10657
#	21443
#	32971
#	52778
#	66989
#	80092
#	93004
#	109218
#	121020
#	133833
#
# Disc length: 1968 seconds
#
# Revision: 1
# Processed by: cddbd v1.5.2PL0 Copyright (c) Steve Scherf et al.
# Submitted via: audiograbber 1.83.01
#
DISCID=8a07ae0b
DTITLE=Clay Cooper - Extremely Country
DYEAR=2003
DGENRE=Country
TTITLE0=I'm a One Woman Man
TTITLE1=I'm Gonna Love You Back To Loving Me Again
TTITLE2=It's Too Late Now
TTITLE3=Old Habits
TTITLE4=Lucky Me, Lonely You
TTITLE5=After The Fire Is Gone
TTITLE6=Who's Counting
TTITLE7=To Make You Feel My Love
TTITLE8=Revenoor Man
TTITLE9=Together Again
TTITLE10=Deck Of Cards
EXTD=
EXTT0=
EXTT1=
EXTT2=
EXTT3=
EXTT4=
EXTT5=
EXTT6=
EXTT7=
EXTT8=
EXTT9=
EXTT10=
PLAYORDER=
